<svg xmlns="http://www.w3.org/2000/svg" width="13.8" height="12.541" viewBox="0 0 13.8 12.541">
  <path id="noun-history-5019532" d="M165.018,105.04a6.281,6.281,0,0,0-6.046,4.605h-1.107a.373.373,0,0,0-.3.593l1.588,2.172a.373.373,0,0,0,.6,0l1.585-2.172a.373.373,0,0,0-.3-.593h-1.022a5.271,5.271,0,1,1,.656,4.643.5.5,0,1,0-.826.571,6.272,6.272,0,1,0,5.171-9.819Zm-.348,3.093a.5.5,0,0,0-.5.5v3.1a.5.5,0,0,0,.219.415l1.689,1.152a.5.5,0,1,0,.566-.826l-1.47-1.007v-2.837a.5.5,0,0,0-.5-.5Z" transform="translate(-157.494 -105.04)" fill="#696969" fill-rule="evenodd"/>
</svg>
