<svg xmlns="http://www.w3.org/2000/svg" width="13.888" height="13.888" viewBox="0 0 13.888 13.888">
  <g id="noun-job-4727622" transform="translate(-175.002 -105)">
    <path id="Path_58" data-name="Path 58" d="M178.705,106.389A1.389,1.389,0,0,1,180.094,105h3.7a1.389,1.389,0,0,1,1.389,1.389v.926H187.5a1.389,1.389,0,0,1,1.389,1.389v1.852a1.385,1.385,0,0,1-.463,1.035V117.5a1.389,1.389,0,0,1-1.389,1.389H176.854a1.389,1.389,0,0,1-1.389-1.389V111.59a1.385,1.385,0,0,1-.463-1.035V108.7a1.389,1.389,0,0,1,1.389-1.389h2.315Zm-2.315,4.629h3.319a1.39,1.39,0,0,1,1.31-.926h1.852a1.39,1.39,0,0,1,1.31.926H187.5a.463.463,0,0,0,.463-.463V108.7a.463.463,0,0,0-.463-.463h-11.11a.463.463,0,0,0-.463.463v1.852A.463.463,0,0,0,176.391,111.018Zm6.944.463a.463.463,0,0,0-.463-.463H181.02a.463.463,0,1,0,0,.926h1.852A.463.463,0,0,0,183.335,111.481Zm-3.625.463h-3.319V117.5a.463.463,0,0,0,.463.463h10.184a.463.463,0,0,0,.463-.463v-5.555h-3.319a1.389,1.389,0,0,1-1.31.926H181.02a1.389,1.389,0,0,1-1.31-.926Zm4.55-5.555v.926h-4.629v-.926a.463.463,0,0,1,.463-.463h3.7a.463.463,0,0,1,.463.463Z" fill="#455696" fill-rule="evenodd"/>
  </g>
</svg>
