<svg xmlns="http://www.w3.org/2000/svg" width="10.505" height="15.431" viewBox="0 0 10.505 15.431">
  <g id="noun-location-1046864" transform="translate(-170.8 -16.801)">
    <path id="Path_66" data-name="Path 66" d="M176.052,16.8a5.309,5.309,0,0,0-5.252,5.35c0,2.951,2.272,6.189,4.847,9.869a.492.492,0,0,0,.81,0c2.575-3.68,4.847-6.918,4.847-9.869a5.309,5.309,0,0,0-5.252-5.35Zm0,.985a4.309,4.309,0,0,1,4.268,4.365c0,2.281-1.895,5.29-4.268,8.709-2.373-3.419-4.268-6.429-4.268-8.709A4.31,4.31,0,0,1,176.052,17.786Zm0,1.313a3.119,3.119,0,1,0,3.119,3.119A3.126,3.126,0,0,0,176.052,19.1Zm0,.985a2.134,2.134,0,1,1-2.134,2.134A2.126,2.126,0,0,1,176.052,20.084Z" fill="#595c6a"/>
  </g>
</svg>
